<svg width="19" height="9" viewBox="0 0 19 9" fill="none" xmlns="http://www.w3.org/2000/svg">
<g id="ico-shape">
<path id="Vector (Stroke)" fill-rule="evenodd" clip-rule="evenodd" d="M0.785861 4.12682C0.784427 3.85069 1.00712 3.62567 1.28326 3.62423L17.283 3.54114C17.5592 3.53971 17.7842 3.7624 17.7856 4.03854C17.7871 4.31468 17.5644 4.53969 17.2882 4.54113L1.28845 4.62422C1.01231 4.62566 0.787295 4.40296 0.785861 4.12682Z" fill="#333333"/>
<path id="Vector 2 (Stroke)" fill-rule="evenodd" clip-rule="evenodd" d="M13.4121 0.207574C13.6063 0.0113002 13.9229 0.00965604 14.1192 0.203902L17.9927 4.03739L14.1592 7.91091C13.965 8.10718 13.6484 8.10882 13.4521 7.91458C13.2558 7.72033 13.2542 7.40375 13.4485 7.20748L16.5785 4.04474L13.4158 0.914671C13.2195 0.720426 13.2179 0.403847 13.4121 0.207574Z" fill="#333333"/>
</g>
</svg>
