<svg width="227" height="144" viewBox="0 0 227 144" fill="none" xmlns="http://www.w3.org/2000/svg">
<path d="M146.595 72.4052L150.814 82.5962C151.594 84.4746 153.741 85.363 155.614 84.5826C157.49 83.8102 158.38 81.6592 157.602 79.7798L153.384 69.592L146.595 72.4052Z" fill="#333333"/>
<path d="M149.41 79.1983L156.198 76.385L149.41 79.1983Z" fill="#333333"/>
<path d="M137.693 50.8955L147.294 54.8741L137.693 50.8955Z" fill="#333333"/>
<path d="M142.917 30.2377C142.917 35.6532 138.532 40.0424 133.125 40.0424C127.713 40.0424 123.327 35.6532 123.327 30.2377C123.327 24.8232 127.713 20.4363 133.125 20.4363C138.531 20.4363 142.917 24.8232 142.917 30.2377Z" fill="#333333"/>
<path d="M138.018 30.2375C138.018 32.9469 135.827 35.142 133.124 35.142C130.417 35.142 128.221 32.9469 128.221 30.2375C128.221 27.5303 130.417 25.3352 133.124 25.3352C135.827 25.334 138.018 27.5303 138.018 30.2375Z" fill="#333333"/>
<path d="M126.254 37.2258L112.853 69.5933L109.494 84.1184L111.757 85.0565L119.644 72.4065L121.52 67.8794C120.056 64.34 121.733 60.2819 125.269 58.8186L133.04 40.039C130.397 40.017 128.006 38.9486 126.254 37.2258Z" fill="#333333"/>
<path d="M139.989 37.2236C138.236 38.9487 135.843 40.017 133.2 40.038L144.726 67.8739L151.512 65.062L139.989 37.2236Z" fill="#333333"/>
<path d="M136.795 15.5329V4.50204C136.794 2.46914 135.144 0.824707 133.122 0.824707C131.093 0.824707 129.448 2.46692 129.447 4.50204L129.448 15.5329H136.795Z" fill="#333333"/>
<path d="M133.125 20.4356C133.75 20.4356 134.364 20.4985 134.958 20.6111V15.5332H131.286V20.6111C131.882 20.4974 132.492 20.4356 133.125 20.4356Z" fill="#333333"/>
<path d="M82.1157 89.1124H69.8965V0.822266H82.1179C84.818 0.822266 87.0056 3.01962 87.0056 5.72906V84.2099H87.0045C87.0033 86.9195 84.8158 89.1124 82.1157 89.1124Z" fill="#333333"/>
<path d="M81.5065 8.18124C82.519 8.18124 83.34 7.35755 83.34 6.34148C83.34 5.3254 82.519 4.50171 81.5065 4.50171C80.4939 4.50171 79.6731 5.3254 79.6731 6.34148C79.6731 7.35755 80.4939 8.18124 81.5065 8.18124Z" fill="#333333"/>
<path d="M95.5593 52.9424C95.5593 53.9545 96.3809 54.781 97.3927 54.781C98.4056 54.781 99.2262 53.9545 99.2262 52.9424C99.2262 53.9545 100.049 54.781 101.06 54.781C102.073 54.781 102.893 53.9545 102.893 52.9424C102.893 53.9545 102.073 54.781 101.06 54.781C100.049 54.781 99.2262 53.9545 99.2262 52.9424C99.2262 53.9545 98.4056 54.781 97.3927 54.781C96.3809 54.781 95.5593 53.9545 95.5593 52.9424Z" fill="#333333"/>
<path d="M98.0043 0.822266C96.6558 0.822266 95.5593 1.9226 95.5593 3.27786V3.27675V54.7803L99.225 69.4951L102.892 54.7803V3.27566V3.27675C102.892 1.9237 101.797 0.823369 100.447 0.823369L98.0043 0.822266Z" fill="#333333"/>
</svg>
